<svg xmlns="http://www.w3.org/2000/svg" xmlns:xlink="http://www.w3.org/1999/xlink" width="20" height="20" viewBox="0 0 20 20">
    <defs>
        <clipPath id="clip-path">
            <rect id="Rectangle_7379" data-name="Rectangle 7379" width="20" height="20" transform="translate(0 0.011)" fill="#707070"/>
        </clipPath>
    </defs>
    <g id="Group_566" data-name="Group 566" transform="translate(0 -0.011)">
        <g id="Group_448" data-name="Group 448" clip-path="url(#clip-path)">
            <path id="Path_151" data-name="Path 151" d="M18.53,15.222A9.954,9.954,0,0,0,20,10h0A9.954,9.954,0,0,0,18.53,4.78l-.006-.009a10,10,0,0,0-17.048,0l-.006.009a10,10,0,0,0,0,10.441l.006.009a10,10,0,0,0,17.048,0Zm-7.251,3.065a2.43,2.43,0,0,1-.649.448,1.465,1.465,0,0,1-1.258,0,3.061,3.061,0,0,1-1.134-1,8.937,8.937,0,0,1-1.292-2.8q1.526-.094,3.055-.1t3.055.1a11.277,11.277,0,0,1-.548,1.508,5.8,5.8,0,0,1-1.229,1.844ZM1.143,10.563H5.177a19.844,19.844,0,0,0,.365,3.352q-1.654.146-3.3.4a8.815,8.815,0,0,1-1.1-3.751m1.1-4.875q1.645.255,3.3.4a19.81,19.81,0,0,0-.365,3.351H1.143a8.816,8.816,0,0,1,1.1-3.751m6.48-3.973a2.429,2.429,0,0,1,.649-.448,1.465,1.465,0,0,1,1.258,0,3.061,3.061,0,0,1,1.134,1,8.939,8.939,0,0,1,1.292,2.8q-1.526.094-3.055.1t-3.055-.1a11.276,11.276,0,0,1,.548-1.508A5.8,5.8,0,0,1,8.722,1.715M18.857,9.439H14.824a19.848,19.848,0,0,0-.365-3.352q1.654-.146,3.3-.4a8.816,8.816,0,0,1,1.1,3.751M6.672,13.827A18.583,18.583,0,0,1,6.3,10.563h7.4a18.576,18.576,0,0,1-.37,3.264q-1.663-.109-3.329-.111t-3.329.111m6.657-7.652A18.58,18.58,0,0,1,13.7,9.439H6.3a18.58,18.58,0,0,1,.37-3.264q1.663.109,3.329.111t3.329-.111m1.494,4.388h4.034a8.815,8.815,0,0,1-1.1,3.751q-1.645-.255-3.3-.4a19.807,19.807,0,0,0,.365-3.351m2.261-5.909q-1.438.207-2.885.329A12.817,12.817,0,0,0,13.531,3.1a7.972,7.972,0,0,0-.93-1.583,8.874,8.874,0,0,1,4.484,3.141M3.724,3.725A8.873,8.873,0,0,1,7.4,1.513c-.021.027-.043.053-.063.081A10.257,10.257,0,0,0,5.8,4.983Q4.356,4.86,2.916,4.654a8.944,8.944,0,0,1,.808-.929M2.916,15.348q1.438-.208,2.885-.329a12.816,12.816,0,0,0,.669,1.887A7.975,7.975,0,0,0,7.4,18.49a8.874,8.874,0,0,1-4.484-3.141m13.361.929A8.874,8.874,0,0,1,12.6,18.49c.021-.027.043-.053.063-.081A10.257,10.257,0,0,0,14.2,15.02q1.447.123,2.887.329a8.952,8.952,0,0,1-.808.929" transform="translate(0 0)" fill="#707070"/>
        </g>
    </g>
</svg>
