<svg xmlns="http://www.w3.org/2000/svg" xmlns:xlink="http://www.w3.org/1999/xlink" width="211.8" height="30" viewBox="0 0 211.8 30">
	<defs>
		<clipPath id="clip-path">
			<rect id="Rectangle_7381" data-name="Rectangle 7381" width="211.8" height="30" fill="none"/>
		</clipPath>
	</defs>
	<g id="Group_450" data-name="Group 450" clip-path="url(#clip-path)">
		<path id="Path_152" data-name="Path 152" d="M63.18,10.832A6.972,6.972,0,0,0,57.72,8.7a6.913,6.913,0,0,0-4.26,1.065,3.56,3.56,0,0,0-1.32,2.959,3.315,3.315,0,0,0,.36,1.6,3.076,3.076,0,0,0,1.08,1.065,8.567,8.567,0,0,0,1.8.769,19.684,19.684,0,0,0,2.64.592c1.08.237,2.04.473,2.94.71a9.586,9.586,0,0,1,2.22,1.006,4.068,4.068,0,0,1,1.38,1.479,4.739,4.739,0,0,1,.48,2.189,4.464,4.464,0,0,1-.54,2.249,4.642,4.642,0,0,1-1.44,1.6,7.628,7.628,0,0,1-2.22,1.006,10.956,10.956,0,0,1-2.88.355,11.212,11.212,0,0,1-7.86-2.9l.78-1.124a9.268,9.268,0,0,0,3.06,2.071,10.022,10.022,0,0,0,4.08.769,7.285,7.285,0,0,0,4.08-.947,3.217,3.217,0,0,0,1.44-2.84,3.561,3.561,0,0,0-.36-1.657,3.573,3.573,0,0,0-1.14-1.183,8.118,8.118,0,0,0-1.92-.828q-1.17-.355-2.7-.71c-1.08-.237-1.98-.473-2.82-.71a7.715,7.715,0,0,1-2.22-1.006,3.919,3.919,0,0,1-1.26-1.361A4.016,4.016,0,0,1,50.7,12.9a5.1,5.1,0,0,1,.54-2.367A5.041,5.041,0,0,1,52.68,8.82,6.423,6.423,0,0,1,54.9,7.755,10.64,10.64,0,0,1,57.78,7.4a8.809,8.809,0,0,1,3.42.592,7.962,7.962,0,0,1,2.76,1.716Z" transform="translate(-20.04 -3.021)" fill="#00abbd"/>
		<path id="Path_153" data-name="Path 153" d="M87.38,30.952a6.052,6.052,0,0,1-3.36-1.006,8.818,8.818,0,0,1-2.34-2.367v8.994H80.3V16.337h1.26v2.9a6.7,6.7,0,0,1,2.4-2.249,5.992,5.992,0,0,1,3.18-.888,6.111,6.111,0,0,1,2.76.651,8.658,8.658,0,0,1,2.22,1.657,6.815,6.815,0,0,1,1.44,2.367,7.4,7.4,0,0,1,.54,2.781,8.822,8.822,0,0,1-.48,2.84,6.682,6.682,0,0,1-1.38,2.367,6,6,0,0,1-2.1,1.6,6.438,6.438,0,0,1-2.76.592m-.3-1.243a4.794,4.794,0,0,0,2.28-.533,5.714,5.714,0,0,0,1.74-1.42,7.344,7.344,0,0,0,1.14-2.012,7.435,7.435,0,0,0,.42-2.249,6.358,6.358,0,0,0-.42-2.367,5.514,5.514,0,0,0-1.26-1.953,6.011,6.011,0,0,0-1.86-1.361,4.968,4.968,0,0,0-2.28-.533,5.907,5.907,0,0,0-1.62.3,6.924,6.924,0,0,0-1.62.828,6.226,6.226,0,0,0-1.26,1.243,2.883,2.883,0,0,0-.6,1.479v4.734a7.524,7.524,0,0,0,.9,1.479,6.226,6.226,0,0,0,1.26,1.243,5.341,5.341,0,0,0,1.5.828,5.27,5.27,0,0,0,1.68.3" transform="translate(-32.12 -6.573)" fill="#00abbd"/>
		<path id="Path_154" data-name="Path 154" d="M111.6,30.87a4.721,4.721,0,0,1-1.86-.355,5.237,5.237,0,0,1-1.56-.946,4.778,4.778,0,0,1-1.02-1.421,4.272,4.272,0,0,1-.36-1.775,3.316,3.316,0,0,1,.42-1.716,4.514,4.514,0,0,1,1.26-1.361,8.173,8.173,0,0,1,1.92-.888,8.028,8.028,0,0,1,2.46-.3,13.771,13.771,0,0,1,4.56.828v-1.42a4.54,4.54,0,0,0-1.2-3.254,4.15,4.15,0,0,0-3.18-1.183,6.429,6.429,0,0,0-2.28.414,11.612,11.612,0,0,0-2.4,1.243l-.54-.947a9.784,9.784,0,0,1,5.34-1.893,5.622,5.622,0,0,1,4.14,1.479,5.507,5.507,0,0,1,1.5,4.142v7.041c0,.473.18.711.6.711v1.242h-.48a1.232,1.232,0,0,1-.9-.354,1.06,1.06,0,0,1-.42-.888V28.09a6.207,6.207,0,0,1-2.58,2.011,6.9,6.9,0,0,1-3.42.769m.3-1.065a7.143,7.143,0,0,0,3-.592,4.711,4.711,0,0,0,2.04-1.6,1.718,1.718,0,0,0,.48-1.124V23.948a12.411,12.411,0,0,0-4.38-.77,6.391,6.391,0,0,0-3.54.888,2.637,2.637,0,0,0-1.32,2.308,3.469,3.469,0,0,0,.3,1.361,2.741,2.741,0,0,0,.78,1.065,4.005,4.005,0,0,0,1.2.71,3.669,3.669,0,0,0,1.44.3" transform="translate(-42.72 -6.492)" fill="#00abbd"/>
		<path id="Path_155" data-name="Path 155" d="M145.84,30.715h-1.38V22.667a8.09,8.09,0,0,0-.78-4.082,2.832,2.832,0,0,0-2.58-1.243,5.435,5.435,0,0,0-1.86.355,6.766,6.766,0,0,0-1.68.947,7.788,7.788,0,0,0-1.38,1.42,4.855,4.855,0,0,0-.84,1.775v8.876H133.9V16.337h1.26v3.432a5.452,5.452,0,0,1,1.14-1.479,7.308,7.308,0,0,1,1.5-1.183,9.13,9.13,0,0,1,1.74-.769,6.83,6.83,0,0,1,1.92-.237,3.579,3.579,0,0,1,3.36,1.657,9.332,9.332,0,0,1,.96,4.734v8.225Z" transform="translate(-53.56 -6.573)" fill="#00abbd"/>
		<path id="Path_156" data-name="Path 156" d="M163.5,30.87a4.721,4.721,0,0,1-1.86-.355,5.237,5.237,0,0,1-1.56-.946,4.778,4.778,0,0,1-1.02-1.421,4.272,4.272,0,0,1-.36-1.775,3.316,3.316,0,0,1,.42-1.716,4.514,4.514,0,0,1,1.26-1.361,8.173,8.173,0,0,1,1.92-.888,8.028,8.028,0,0,1,2.46-.3,13.771,13.771,0,0,1,4.56.828v-1.42a4.54,4.54,0,0,0-1.2-3.254,4.15,4.15,0,0,0-3.18-1.183,6.429,6.429,0,0,0-2.28.414,11.612,11.612,0,0,0-2.4,1.243l-.54-.947a9.784,9.784,0,0,1,5.34-1.893,5.622,5.622,0,0,1,4.14,1.479,5.507,5.507,0,0,1,1.5,4.142v7.041c0,.473.18.711.6.711v1.242h-.48a1.233,1.233,0,0,1-.9-.354,1.06,1.06,0,0,1-.42-.888V28.09a6.207,6.207,0,0,1-2.58,2.011,6.9,6.9,0,0,1-3.42.769m.3-1.065a7.143,7.143,0,0,0,3-.592,4.711,4.711,0,0,0,2.04-1.6,1.718,1.718,0,0,0,.48-1.124V23.948a12.411,12.411,0,0,0-4.38-.77,6.391,6.391,0,0,0-3.54.888,2.637,2.637,0,0,0-1.32,2.308,3.469,3.469,0,0,0,.3,1.361,2.741,2.741,0,0,0,.78,1.065,4.005,4.005,0,0,0,1.2.71,3.669,3.669,0,0,0,1.44.3" transform="translate(-63.48 -6.492)" fill="#00abbd"/>
		<path id="Path_157" data-name="Path 157" d="M207.3,30.715h-1.38V22.667a7.774,7.774,0,0,0-.839-4.023,2.854,2.854,0,0,0-2.641-1.3,4.355,4.355,0,0,0-1.74.355,4.665,4.665,0,0,0-1.439.947,6.609,6.609,0,0,0-1.141,1.42,7.382,7.382,0,0,0-.78,1.834v8.876h-1.379V22.667a7.613,7.613,0,0,0-.841-4.023,2.94,2.94,0,0,0-2.58-1.3,5.264,5.264,0,0,0-1.679.3,7.638,7.638,0,0,0-1.5.888,9.377,9.377,0,0,0-1.2,1.42,5.657,5.657,0,0,0-.78,1.834v8.875H186V16.337h1.261v3.432a6.7,6.7,0,0,1,2.4-2.722A5.614,5.614,0,0,1,192.9,16.1a4.216,4.216,0,0,1,3,1.065,4.587,4.587,0,0,1,1.381,2.84c1.439-2.6,3.3-3.905,5.7-3.905a3.618,3.618,0,0,1,3.419,1.657,9.184,9.184,0,0,1,1.02,4.675v8.284Z" transform="translate(-74.4 -6.573)" fill="#00abbd"/>
		<path id="Path_158" data-name="Path 158" d="M233.84,30.951a6.328,6.328,0,0,1-2.82-.592,8.725,8.725,0,0,1-2.28-1.6,7.566,7.566,0,0,1-1.5-2.367,7.473,7.473,0,0,1-.54-2.841,8,8,0,0,1,.54-2.9,6.947,6.947,0,0,1,1.5-2.367,6.11,6.11,0,0,1,2.28-1.6,6.336,6.336,0,0,1,2.82-.592,6.516,6.516,0,0,1,2.82.592,8.761,8.761,0,0,1,2.28,1.6,7.595,7.595,0,0,1,2.039,5.266,7.484,7.484,0,0,1-.539,2.841,6.966,6.966,0,0,1-1.5,2.367,6.114,6.114,0,0,1-2.28,1.6,6.328,6.328,0,0,1-2.82.592m-5.7-7.337a6.153,6.153,0,0,0,.42,2.367,6.355,6.355,0,0,0,1.2,1.953,5.589,5.589,0,0,0,1.8,1.3,5.442,5.442,0,0,0,4.44,0,4.53,4.53,0,0,0,1.8-1.361,8.389,8.389,0,0,0,1.26-1.953,6.478,6.478,0,0,0,.48-2.425,6.178,6.178,0,0,0-.48-2.367,5.515,5.515,0,0,0-1.26-1.953,7.973,7.973,0,0,0-1.8-1.361,4.844,4.844,0,0,0-2.221-.473,5.234,5.234,0,0,0-2.159.473,5.15,5.15,0,0,0-1.8,1.361,6.356,6.356,0,0,0-1.26,2.012,8.241,8.241,0,0,0-.42,2.426" transform="translate(-90.68 -6.573)" fill="#00abbd"/>
		<rect id="Rectangle_7380" data-name="Rectangle 7380" width="1.26" height="2.367" transform="translate(153.36 21.775)" fill="#00abbd"/>
		<path id="Path_159" data-name="Path 159" d="M262.8,23.456a8.029,8.029,0,0,1,.539-2.9,7.6,7.6,0,0,1,1.5-2.367,7.86,7.86,0,0,1,2.28-1.6,7.285,7.285,0,0,1,6.361.3,5.758,5.758,0,0,1,2.28,2.485l-1.38.414a4.254,4.254,0,0,0-1.861-1.834,5,5,0,0,0-2.639-.651,5.518,5.518,0,0,0-2.22.473,5,5,0,0,0-1.8,1.3,5.382,5.382,0,0,0-1.2,1.953,6.762,6.762,0,0,0,.059,4.852,6.358,6.358,0,0,0,1.261,2.012,7.946,7.946,0,0,0,1.8,1.361,4.84,4.84,0,0,0,2.22.473,4.418,4.418,0,0,0,1.5-.237,5.7,5.7,0,0,0,1.38-.592,5.164,5.164,0,0,0,1.08-.828,1.974,1.974,0,0,0,.6-1.006l1.379.414a5.853,5.853,0,0,1-.839,1.42,5.178,5.178,0,0,1-1.381,1.124,7.618,7.618,0,0,1-1.739.71,7.53,7.53,0,0,1-4.8-.355,7.031,7.031,0,0,1-2.28-1.657,7.567,7.567,0,0,1-1.5-2.367,6.983,6.983,0,0,1-.6-2.9" transform="translate(-105.12 -6.533)" fill="#00abbd"/>
		<path id="Path_160" data-name="Path 160" d="M295.04,30.951a6.326,6.326,0,0,1-2.82-.592,8.725,8.725,0,0,1-2.28-1.6,7.567,7.567,0,0,1-1.5-2.367,7.473,7.473,0,0,1-.54-2.841,8,8,0,0,1,.54-2.9,6.947,6.947,0,0,1,1.5-2.367,6.11,6.11,0,0,1,2.28-1.6,6.334,6.334,0,0,1,2.82-.592,6.515,6.515,0,0,1,2.819.592,8.753,8.753,0,0,1,2.281,1.6,7.6,7.6,0,0,1,2.039,5.266,7.484,7.484,0,0,1-.539,2.841,6.965,6.965,0,0,1-1.5,2.367,6.115,6.115,0,0,1-2.281,1.6,6.325,6.325,0,0,1-2.819.592m-5.7-7.337a6.153,6.153,0,0,0,.419,2.367,6.366,6.366,0,0,0,1.2,1.953,5.6,5.6,0,0,0,1.8,1.3,5.444,5.444,0,0,0,4.441,0,4.529,4.529,0,0,0,1.8-1.361,8.367,8.367,0,0,0,1.259-1.953,6.479,6.479,0,0,0,.481-2.425,6.179,6.179,0,0,0-.481-2.367A5.513,5.513,0,0,0,299,19.177a8,8,0,0,0-1.8-1.361,4.846,4.846,0,0,0-2.221-.473,5.234,5.234,0,0,0-2.159.473,5.15,5.15,0,0,0-1.8,1.361,6.357,6.357,0,0,0-1.261,2.012,8.261,8.261,0,0,0-.419,2.426" transform="translate(-115.16 -6.573)" fill="#00abbd"/>
		<path id="Path_161" data-name="Path 161" d="M338.66,30.715h-1.38V22.667a7.767,7.767,0,0,0-.84-4.023,2.853,2.853,0,0,0-2.64-1.3,4.356,4.356,0,0,0-1.74.355,4.661,4.661,0,0,0-1.44.947,6.625,6.625,0,0,0-1.14,1.42,7.381,7.381,0,0,0-.78,1.834v8.876h-1.44V22.667a7.619,7.619,0,0,0-.84-4.023,2.942,2.942,0,0,0-2.58-1.3,5.271,5.271,0,0,0-1.68.3,7.672,7.672,0,0,0-1.5.888,9.447,9.447,0,0,0-1.2,1.42,5.67,5.67,0,0,0-.78,1.834v8.875H317.3V16.337h1.26v3.432a6.7,6.7,0,0,1,2.4-2.722,5.617,5.617,0,0,1,3.24-.947,4.217,4.217,0,0,1,3,1.065,4.586,4.586,0,0,1,1.38,2.84c1.44-2.6,3.3-3.905,5.7-3.905a3.618,3.618,0,0,1,3.42,1.657,9.191,9.191,0,0,1,1.02,4.675v8.284Z" transform="translate(-126.92 -6.573)" fill="#00abbd"/>
		<path id="Path_162" data-name="Path 162" d="M16.26,0a14.321,14.321,0,0,0-7.2,3.491A9.184,9.184,0,0,0,6.84,7.337a7.546,7.546,0,0,0-.36,2.071v.178c0,.355,0,1.361-.12,2.6A14.286,14.286,0,0,1,5.64,15.8a4.773,4.773,0,0,1-1.32,1.834,13.3,13.3,0,0,1-3.06,1.953,5.516,5.516,0,0,1-1.2.473H0L.96,21.6a21.25,21.25,0,0,0,2.16-1.006,12.078,12.078,0,0,0,2.4-1.716,6.91,6.91,0,0,0,1.74-2.544,18.369,18.369,0,0,0,.78-4.024c.12-1.243.12-2.367.12-2.722V9.467a6.669,6.669,0,0,1,.36-1.716,6.816,6.816,0,0,1,1.74-3.018,12.8,12.8,0,0,1,6.3-3.018Z" transform="translate(0 0)" fill="#00abbd"/>
		<path id="Path_163" data-name="Path 163" d="M24,6.1a14.321,14.321,0,0,0-7.2,3.491,9.184,9.184,0,0,0-2.22,3.846,7.546,7.546,0,0,0-.36,2.071v.178c0,.355,0,1.361-.12,2.6a14.286,14.286,0,0,1-.72,3.609,4.773,4.773,0,0,1-1.32,1.834A13.3,13.3,0,0,1,9,25.686a5.515,5.515,0,0,1-1.2.473L8.7,27.7c.54-.237,1.32-.533,2.22-1.006a12.078,12.078,0,0,0,2.4-1.716,6.91,6.91,0,0,0,1.74-2.544,18.369,18.369,0,0,0,.78-4.024c.12-1.243.12-2.367.12-2.722v-.118a6.669,6.669,0,0,1,.36-1.716,6.816,6.816,0,0,1,1.74-3.018,12.8,12.8,0,0,1,6.3-3.018Z" transform="translate(-3.12 -2.491)" fill="#00abbd"/>
		<path id="Path_164" data-name="Path 164" d="M31.64,11.6a14.321,14.321,0,0,0-7.2,3.491,9.184,9.184,0,0,0-2.22,3.846,7.546,7.546,0,0,0-.36,2.071v.178c0,.355,0,1.361-.12,2.6a14.286,14.286,0,0,1-.72,3.609,4.773,4.773,0,0,1-1.32,1.834,13.3,13.3,0,0,1-3.06,1.953c-.42.178-.84.355-1.14.473l.96,1.538c.54-.237,1.26-.533,2.04-.947a12.079,12.079,0,0,0,2.4-1.716,6.91,6.91,0,0,0,1.74-2.544,18.369,18.369,0,0,0,.78-4.024c.12-1.243.12-2.367.12-2.722v-.118a6.669,6.669,0,0,1,.36-1.716,6.816,6.816,0,0,1,1.74-3.018,12.8,12.8,0,0,1,6.3-3.018Z" transform="translate(-6.2 -4.736)" fill="#00abbd"/>
	</g>
</svg>
