<?xml version="1.0" encoding="utf-8"?>
<!-- Generator: Adobe Illustrator 25.0.0, SVG Export Plug-In . SVG Version: 6.00 Build 0)  -->
<svg version="1.1" id="Layer_1" xmlns="http://www.w3.org/2000/svg" xmlns:xlink="http://www.w3.org/1999/xlink" x="0px" y="0px"
	 viewBox="0 0 25.7 28.5" style="enable-background:new 0 0 25.7 28.5;" xml:space="preserve">
<style type="text/css">
	.st0{clip-path:url(#SVGID_2_);}
	.st1{fill:#00ABBD;}
</style>
<g>
	<defs>
		<rect id="SVGID_1_" width="211.8" height="30"/>
	</defs>
	<clipPath id="SVGID_2_">
		<use xlink:href="#SVGID_1_"  style="overflow:visible;"/>
	</clipPath>
	<g id="Group_450" class="st0">
		<path id="Path_162" class="st1" d="M16.3,0c-2.7,0.5-5.2,1.7-7.2,3.5C8,4.6,7.3,5.9,6.8,7.3C6.6,8,6.5,8.7,6.5,9.4v0.2
			c0,0.4,0,1.4-0.1,2.6c-0.1,1.2-0.3,2.4-0.7,3.6c-0.3,0.7-0.7,1.3-1.3,1.8c-0.9,0.8-2,1.4-3.1,2c-0.4,0.2-0.8,0.4-1.2,0.5H0l1,1.5
			c0.7-0.3,1.5-0.6,2.2-1c0.9-0.5,1.7-1,2.4-1.7c0.8-0.7,1.4-1.6,1.7-2.5c0.4-1.3,0.7-2.7,0.8-4c0.1-1.2,0.1-2.4,0.1-2.7V9.5
			c0-0.6,0.2-1.2,0.4-1.7c0.3-1.1,0.9-2.2,1.7-3c1.8-1.6,4-2.6,6.3-3L16.3,0z"/>
		<path id="Path_163" class="st1" d="M20.9,3.6c-2.7,0.5-5.2,1.7-7.2,3.5c-1,1.1-1.8,2.4-2.2,3.8c-0.2,0.7-0.3,1.4-0.4,2.1v0.2
			c0,0.4,0,1.4-0.1,2.6c-0.1,1.2-0.3,2.4-0.7,3.6c-0.3,0.7-0.7,1.3-1.3,1.8c-0.9,0.8-2,1.4-3.1,2c-0.4,0.2-0.8,0.4-1.2,0.5l0.9,1.5
			c0.5-0.2,1.3-0.5,2.2-1c0.9-0.5,1.7-1,2.4-1.7c0.8-0.7,1.4-1.6,1.7-2.5c0.4-1.3,0.7-2.7,0.8-4c0.1-1.2,0.1-2.4,0.1-2.7v-0.1
			c0-0.6,0.2-1.2,0.4-1.7c0.3-1.1,0.9-2.2,1.7-3c1.8-1.6,4-2.6,6.3-3L20.9,3.6z"/>
		<path id="Path_164" class="st1" d="M25.4,6.9c-2.7,0.5-5.2,1.7-7.2,3.5c-1,1.1-1.8,2.4-2.2,3.8c-0.2,0.7-0.3,1.4-0.4,2.1v0.2
			c0,0.4,0,1.4-0.1,2.6c-0.1,1.2-0.3,2.4-0.7,3.6c-0.3,0.7-0.7,1.3-1.3,1.8c-0.9,0.8-2,1.4-3.1,2c-0.4,0.2-0.8,0.4-1.1,0.5l1,1.5
			c0.5-0.2,1.3-0.5,2-0.9c0.9-0.5,1.7-1,2.4-1.7c0.8-0.7,1.4-1.6,1.7-2.5c0.4-1.3,0.7-2.7,0.8-4c0.1-1.2,0.1-2.4,0.1-2.7v-0.1
			c0-0.6,0.2-1.2,0.4-1.7c0.3-1.1,0.9-2.2,1.7-3c1.8-1.6,4-2.6,6.3-3L25.4,6.9z"/>
	</g>
</g>
</svg>
